<svg xmlns="http://www.w3.org/2000/svg" viewBox="0 0 1200 470" role="img" aria-label="当前设计图" width="1200" height="470"><rect width="1200" height="470" fill="#091213"/><defs><marker id="bp-arrow" viewBox="0 0 10 10" refX="9" refY="5" markerWidth="7" markerHeight="7" orient="auto-start-reverse"><path d="M0 0L10 5L0 10Z" fill="#54786a"/></marker></defs><polyline points="75,165 75,48 840,48 840,155" fill="none" stroke="#9cc7ff" stroke-width="2" stroke-dasharray="none" marker-end="url(#bp-arrow)"/><polyline points="130,205 170,205" fill="none" stroke="#54786a" stroke-width="2" stroke-dasharray="none" marker-end="url(#bp-arrow)"/><polyline points="315,185 340,185 340,105 365,105" fill="none" stroke="#54786a" stroke-width="2" stroke-dasharray="none" marker-end="url(#bp-arrow)"/><polyline points="515,105 545,105 545,175 565,175" fill="none" stroke="#54786a" stroke-width="2" stroke-dasharray="none" marker-end="url(#bp-arrow)"/><polyline points="315,220 565,220" fill="none" stroke="#54786a" stroke-width="2" stroke-dasharray="none" marker-end="url(#bp-arrow)"/><polyline points="710,195 765,195" fill="none" stroke="#54786a" stroke-width="2" stroke-dasharray="none" marker-end="url(#bp-arrow)"/><polyline points="915,195 1020,195" fill="none" stroke="#54786a" stroke-width="2" stroke-dasharray="none" marker-end="url(#bp-arrow)"/><polyline points="640,245 640,275 845,275 845,290" fill="none" stroke="#54786a" stroke-width="2" stroke-dasharray="none" marker-end="url(#bp-arrow)"/><polyline points="895,245 895,265 1055,265 1055,290" fill="none" stroke="#54786a" stroke-width="2" stroke-dasharray="none" marker-end="url(#bp-arrow)"/><polyline points="845,350 845,375 1060,375 1060,390" fill="none" stroke="#54786a" stroke-width="2" stroke-dasharray="none" marker-end="url(#bp-arrow)"/><polyline points="1055,350 1105,350 1105,390" fill="none" stroke="#54786a" stroke-width="2" stroke-dasharray="none" marker-end="url(#bp-arrow)"/><polyline points="75,245 75,340 565,340" fill="none" stroke="#54786a" stroke-width="2" stroke-dasharray="6 5" marker-end="url(#bp-arrow)"/><polyline points="715,340 740,340 740,255 995,255 995,210 1020,210" fill="none" stroke="#54786a" stroke-width="2" stroke-dasharray="6 5" marker-end="url(#bp-arrow)"/><polyline points="95,245 95,415 170,415" fill="none" stroke="#54786a" stroke-width="2" stroke-dasharray="none" marker-end="url(#bp-arrow)"/><g class="bp-node" tabindex="0" role="button" aria-label="64 路请求" data-block="req"><rect x="20" y="165" width="110" height="80" rx="8" fill="#132623" stroke="#54786a" stroke-width="1.3"/><text x="75" y="200" fill="#e5f1ec" font-family="Arial, Microsoft YaHei, sans-serif" font-size="15" text-anchor="middle">64 路请求</text><text x="75" y="223" fill="#9eb7ab" font-family="Arial, Microsoft YaHei, sans-serif" font-size="11" text-anchor="middle">req[63:0]</text></g><g class="bp-node" tabindex="0" role="button" aria-label="16 个四位组" data-block="group-valid"><rect x="170" y="155" width="145" height="100" rx="8" fill="#132623" stroke="#54786a" stroke-width="1.3"/><text x="242.5" y="200" fill="#e5f1ec" font-family="Arial, Microsoft YaHei, sans-serif" font-size="15" text-anchor="middle">16 个四位组</text><text x="242.5" y="223" fill="#9eb7ab" font-family="Arial, Microsoft YaHei, sans-serif" font-size="11" text-anchor="middle">gv[g] = OR(req组)</text></g><g class="bp-node" tabindex="0" role="button" aria-label="4 个大组仲裁" data-block="super"><rect x="365" y="60" width="150" height="100" rx="8" fill="#223c32" stroke="#a3eece" stroke-width="2"/><text x="440" y="105" fill="#a3eece" font-family="Arial, Microsoft YaHei, sans-serif" font-size="15" text-anchor="middle">4 个大组仲裁</text><text x="440" y="128" fill="#9eb7ab" font-family="Arial, Microsoft YaHei, sans-serif" font-size="11" text-anchor="middle">group_valid / group_sel</text></g><g class="bp-node" tabindex="0" role="button" aria-label="获胜小组" data-block="win"><rect x="565" y="155" width="145" height="100" rx="8" fill="#223c32" stroke="#a3eece" stroke-width="2"/><text x="637.5" y="200" fill="#a3eece" font-family="Arial, Microsoft YaHei, sans-serif" font-size="15" text-anchor="middle">获胜小组</text><text x="637.5" y="223" fill="#9eb7ab" font-family="Arial, Microsoft YaHei, sans-serif" font-size="11" text-anchor="middle">win[15:0]</text></g><g class="bp-node" tabindex="0" role="button" aria-label="组内直接授权" data-block="local-grant"><rect x="765" y="155" width="150" height="100" rx="8" fill="#132623" stroke="#54786a" stroke-width="1.3"/><text x="840" y="200" fill="#e5f1ec" font-family="Arial, Microsoft YaHei, sans-serif" font-size="15" text-anchor="middle">组内直接授权</text><text x="840" y="223" fill="#9eb7ab" font-family="Arial, Microsoft YaHei, sans-serif" font-size="11" text-anchor="middle">win[g] &amp; req &amp; 屏蔽</text></g><g class="bp-node" tabindex="0" role="button" aria-label="grant[63:0]" data-block="grant"><rect x="1020" y="155" width="150" height="80" rx="8" fill="#132623" stroke="#54786a" stroke-width="1.3"/><text x="1095" y="190" fill="#e5f1ec" font-family="Arial, Microsoft YaHei, sans-serif" font-size="15" text-anchor="middle">grant[63:0]</text><text x="1095" y="213" fill="#9eb7ab" font-family="Arial, Microsoft YaHei, sans-serif" font-size="11" text-anchor="middle">直接独热输出</text></g><g class="bp-node" tabindex="0" role="button" aria-label="零输入 / bit 0" data-block="zero"><rect x="565" y="310" width="150" height="60" rx="8" fill="#132623" stroke="#54786a" stroke-width="1.3"/><text x="640" y="335" fill="#e5f1ec" font-family="Arial, Microsoft YaHei, sans-serif" font-size="15" text-anchor="middle">零输入 / bit 0</text><text x="640" y="358" fill="#9eb7ab" font-family="Arial, Microsoft YaHei, sans-serif" font-size="11" text-anchor="middle">~OR(req[63:1])</text></g><g class="bp-node" tabindex="0" role="button" aria-label="索引高四位" data-block="index-hi"><rect x="760" y="290" width="165" height="60" rx="8" fill="#132623" stroke="#54786a" stroke-width="1.3"/><text x="842.5" y="315" fill="#e5f1ec" font-family="Arial, Microsoft YaHei, sans-serif" font-size="15" text-anchor="middle">索引高四位</text><text x="842.5" y="338" fill="#9eb7ab" font-family="Arial, Microsoft YaHei, sans-serif" font-size="11" text-anchor="middle">OR(win 的相应位)</text></g><g class="bp-node" tabindex="0" role="button" aria-label="索引低两位" data-block="index-lo"><rect x="970" y="290" width="165" height="60" rx="8" fill="#132623" stroke="#54786a" stroke-width="1.3"/><text x="1052.5" y="315" fill="#e5f1ec" font-family="Arial, Microsoft YaHei, sans-serif" font-size="15" text-anchor="middle">索引低两位</text><text x="1052.5" y="338" fill="#9eb7ab" font-family="Arial, Microsoft YaHei, sans-serif" font-size="11" text-anchor="middle">OR(grant 的相应位)</text></g><g class="bp-node" tabindex="0" role="button" aria-label="index[5:0]" data-block="index"><rect x="1040" y="390" width="130" height="50" rx="8" fill="#132623" stroke="#54786a" stroke-width="1.3"/><text x="1105" y="410" fill="#e5f1ec" font-family="Arial, Microsoft YaHei, sans-serif" font-size="15" text-anchor="middle">index[5:0]</text><text x="1105" y="433" fill="#9eb7ab" font-family="Arial, Microsoft YaHei, sans-serif" font-size="11" text-anchor="middle">高四位 + 低两位</text></g><g class="bp-node" tabindex="0" role="button" aria-label="valid" data-block="valid"><rect x="170" y="390" width="145" height="50" rx="8" fill="#132623" stroke="#54786a" stroke-width="1.3"/><text x="242.5" y="410" fill="#e5f1ec" font-family="Arial, Microsoft YaHei, sans-serif" font-size="15" text-anchor="middle">valid</text><text x="242.5" y="433" fill="#9eb7ab" font-family="Arial, Microsoft YaHei, sans-serif" font-size="11" text-anchor="middle">OR(req[63:0])</text></g><text x="25" y="32" fill="#9eb7ab" font-family="Arial, Microsoft YaHei, sans-serif" font-size="12" text-anchor="start">SIGNAL FLOW · 从已验证 RTL 归纳，模块位置不表示物理位置</text></svg>