<svg xmlns="http://www.w3.org/2000/svg" width="3540" height="1168" viewBox="0 0 3540 1168" font-family="-apple-system,Helvetica,Arial,'PingFang SC','Noto Sans CJK SC',sans-serif">
<rect width="3540" height="1168" fill="#ffffff"/>
<text x="36" y="42" font-size="24" font-weight="700" fill="#111827">Figure 1 · Recursive Self-Improvement：71 项工作的时间线（1965–2026）</text>
<text x="36" y="68" font-size="13.5" fill="#6b7280">按十个家族分泳道、按 arXiv 首版年月定位（非 arXiv 材料取发布月近似）；★ 为 11 份核心精读材料。1965-2014 为思想史，2015-2022 无收录（断轴），2025-2026 两年集中了 56 项。</text>
<rect x="300" y="108" width="105" height="1000" fill="#f8fafc"/>
<line x1="300" y1="108" x2="300" y2="1110" stroke="#e5e7eb" stroke-dasharray="3 4"/>
<text x="352" y="1136" font-size="15" font-weight="700" text-anchor="middle" fill="#111827">1965</text>
<text x="352" y="1154" font-size="11.5" text-anchor="middle" fill="#6b7280">1 works</text>
<line x1="405" y1="108" x2="405" y2="1110" stroke="#e5e7eb" stroke-dasharray="3 4"/>
<text x="458" y="1136" font-size="15" font-weight="700" text-anchor="middle" fill="#111827">1993</text>
<text x="458" y="1154" font-size="11.5" text-anchor="middle" fill="#6b7280">1 works</text>
<rect x="510" y="108" width="95" height="1000" fill="#f8fafc"/>
<line x1="510" y1="108" x2="510" y2="1110" stroke="#e5e7eb" stroke-dasharray="3 4"/>
<text x="558" y="1136" font-size="15" font-weight="700" text-anchor="middle" fill="#111827">2001</text>
<text x="558" y="1154" font-size="11.5" text-anchor="middle" fill="#6b7280">1 works</text>
<line x1="605" y1="108" x2="605" y2="1110" stroke="#e5e7eb" stroke-dasharray="3 4"/>
<text x="670" y="1136" font-size="15" font-weight="700" text-anchor="middle" fill="#111827">2003</text>
<text x="670" y="1154" font-size="11.5" text-anchor="middle" fill="#6b7280">1 works</text>
<rect x="735" y="108" width="115" height="1000" fill="#f8fafc"/>
<line x1="735" y1="108" x2="735" y2="1110" stroke="#e5e7eb" stroke-dasharray="3 4"/>
<text x="792" y="1136" font-size="15" font-weight="700" text-anchor="middle" fill="#111827">2008</text>
<text x="792" y="1154" font-size="11.5" text-anchor="middle" fill="#6b7280">1 works</text>
<line x1="850" y1="108" x2="850" y2="1110" stroke="#e5e7eb" stroke-dasharray="3 4"/>
<text x="902" y="1136" font-size="15" font-weight="700" text-anchor="middle" fill="#111827">2010</text>
<text x="902" y="1154" font-size="11.5" text-anchor="middle" fill="#6b7280">1 works</text>
<rect x="955" y="108" width="95" height="1000" fill="#f8fafc"/>
<line x1="955" y1="108" x2="955" y2="1110" stroke="#e5e7eb" stroke-dasharray="3 4"/>
<text x="1002" y="1136" font-size="15" font-weight="700" text-anchor="middle" fill="#111827">2013</text>
<text x="1002" y="1154" font-size="11.5" text-anchor="middle" fill="#6b7280">1 works</text>
<line x1="1050" y1="108" x2="1050" y2="1110" stroke="#e5e7eb" stroke-dasharray="3 4"/>
<text x="1125" y="1136" font-size="15" font-weight="700" text-anchor="middle" fill="#111827">2014</text>
<text x="1125" y="1154" font-size="11.5" text-anchor="middle" fill="#6b7280">1 works</text>
<rect x="1200" y="108" width="270" height="1000" fill="#f8fafc"/>
<line x1="1200" y1="108" x2="1200" y2="1110" stroke="#e5e7eb" stroke-dasharray="3 4"/>
<text x="1335" y="1136" font-size="15" font-weight="700" text-anchor="middle" fill="#111827">2023</text>
<text x="1335" y="1154" font-size="11.5" text-anchor="middle" fill="#6b7280">3 works</text>
<line x1="1470" y1="108" x2="1470" y2="1110" stroke="#e5e7eb" stroke-dasharray="3 4"/>
<text x="1635" y="1136" font-size="15" font-weight="700" text-anchor="middle" fill="#111827">2024</text>
<text x="1635" y="1154" font-size="11.5" text-anchor="middle" fill="#6b7280">4 works</text>
<rect x="1800" y="108" width="520" height="1000" fill="#f8fafc"/>
<line x1="1800" y1="108" x2="1800" y2="1110" stroke="#e5e7eb" stroke-dasharray="3 4"/>
<text x="2060" y="1136" font-size="15" font-weight="700" text-anchor="middle" fill="#111827">2025</text>
<text x="2060" y="1154" font-size="11.5" text-anchor="middle" fill="#6b7280">9 works</text>
<line x1="2320" y1="108" x2="2320" y2="1110" stroke="#e5e7eb" stroke-dasharray="3 4"/>
<text x="2910" y="1136" font-size="15" font-weight="700" text-anchor="middle" fill="#111827">2026</text>
<text x="2910" y="1154" font-size="11.5" text-anchor="middle" fill="#6b7280">47 works</text>
<rect x="1193" y="108" width="14" height="1000" fill="#ffffff"/>
<path d="M1196,108 L1204,148 L1196,188" fill="none" stroke="#6b7280" stroke-width="2"/>
<text x="1200" y="102" font-size="11.5" text-anchor="middle" fill="#6b7280">断轴 2015-2022</text>
<rect x="3008" y="108" width="98" height="1000" fill="#dc2626" opacity="0.08"/>
<text x="3058" y="102" font-size="12" font-weight="700" text-anchor="middle" fill="#dc2626">2026-08 密集月</text>
<line x1="300" y1="185" x2="3500" y2="185" stroke="#e5e7eb"/>
<rect x="36" y="118" width="6" height="60" rx="3" fill="#2563eb"/>
<text x="52" y="153.0" font-size="14.5" font-weight="700" fill="#111827">自动研究 · 工业实证</text>
<text x="52" y="170.0" font-size="11.5" fill="#6b7280">9 works</text>
<rect x="1623.6" y="121.0" width="105.4" height="24" rx="12" fill="#dce6fb" stroke="#2563eb" stroke-width="1"/>
<text x="1676.2" y="137.5" font-size="13" text-anchor="middle" fill="#111827">AI Scientist</text>
<rect x="1989.3" y="121.0" width="98.1" height="24" rx="12" fill="#dce6fb" stroke="#2563eb" stroke-width="1"/>
<text x="2038.3" y="137.5" font-size="13" text-anchor="middle" fill="#111827">AlphaEvolve</text>
<rect x="2115.7" y="121.0" width="105.4" height="24" rx="12" fill="#dce6fb" stroke="#2563eb" stroke-width="1"/>
<text x="2168.3" y="137.5" font-size="13" text-anchor="middle" fill="#111827">ShinkaEvolve</text>
<rect x="2322.0" y="121.0" width="156.3" height="24" rx="12" fill="#dce6fb" stroke="#2563eb" stroke-width="1"/>
<text x="2400.2" y="137.5" font-size="13" text-anchor="middle" fill="#111827">Why LLMs≠Scientists</text>
<rect x="2709.8" y="121.0" width="105.4" height="24" rx="12" fill="#dce6fb" stroke="#2563eb" stroke-width="1"/>
<text x="2762.5" y="137.5" font-size="13" text-anchor="middle" fill="#111827">ScientistOne</text>
<rect x="2822.7" y="151.0" width="76.2" height="24" rx="12" fill="#dce6fb" stroke="#2563eb" stroke-width="1"/>
<text x="2860.8" y="167.5" font-size="13" text-anchor="middle" fill="#111827">Autodata</text>
<rect x="2880.5" y="121.0" width="157.4" height="24" rx="12" fill="#2563eb" stroke="#2563eb" stroke-width="1.6"/>
<text x="2959.2" y="137.5" font-size="13" text-anchor="middle" fill="#ffffff" font-weight="700">★ Anthropic 进度报告</text>
<rect x="2911.7" y="151.0" width="95.0" height="24" rx="12" fill="#2563eb" stroke="#2563eb" stroke-width="1.6"/>
<text x="2959.2" y="167.5" font-size="13" text-anchor="middle" fill="#ffffff" font-weight="700">★ Weng 总纲</text>
<rect x="3019.4" y="151.0" width="76.2" height="24" rx="12" fill="#2563eb" stroke="#2563eb" stroke-width="1.6"/>
<text x="3057.5" y="167.5" font-size="13" text-anchor="middle" fill="#ffffff" font-weight="700">★ iCoder</text>
<line x1="300" y1="259" x2="3500" y2="259" stroke="#e5e7eb"/>
<rect x="36" y="192" width="6" height="60" rx="3" fill="#d97706"/>
<text x="52" y="227.0" font-size="14.5" font-weight="700" fill="#111827">框架侧 · 自改写源码</text>
<text x="52" y="244.0" font-size="11.5" fill="#6b7280">7 works</text>
<rect x="1390.2" y="195.0" width="47.1" height="24" rx="12" fill="#f8e9d7" stroke="#d97706" stroke-width="1"/>
<text x="1413.8" y="211.5" font-size="13" text-anchor="middle" fill="#111827">STOP</text>
<rect x="1682.2" y="195.0" width="98.1" height="24" rx="12" fill="#f8e9d7" stroke="#d97706" stroke-width="1"/>
<text x="1731.2" y="211.5" font-size="13" text-anchor="middle" fill="#111827">Gödel Agent</text>
<rect x="1928.1" y="195.0" width="47.1" height="24" rx="12" fill="#f8e9d7" stroke="#d97706" stroke-width="1"/>
<text x="1951.7" y="211.5" font-size="13" text-anchor="middle" fill="#111827">SICA</text>
<rect x="1967.8" y="225.0" width="54.4" height="24" rx="12" fill="#d97706" stroke="#d97706" stroke-width="1.6"/>
<text x="1995.0" y="241.5" font-size="13" text-anchor="middle" fill="#ffffff" font-weight="700">★ DGM</text>
<rect x="2516.8" y="195.0" width="98.1" height="24" rx="12" fill="#f8e9d7" stroke="#d97706" stroke-width="1"/>
<text x="2565.8" y="211.5" font-size="13" text-anchor="middle" fill="#111827">HyperAgents</text>
<rect x="2731.7" y="195.0" width="61.7" height="24" rx="12" fill="#d97706" stroke="#d97706" stroke-width="1.6"/>
<text x="2762.5" y="211.5" font-size="13" text-anchor="middle" fill="#ffffff" font-weight="700">★ MOSS</text>
<rect x="3030.3" y="195.0" width="54.4" height="24" rx="12" fill="#f8e9d7" stroke="#d97706" stroke-width="1"/>
<text x="3057.5" y="211.5" font-size="13" text-anchor="middle" fill="#111827">Metan</text>
<line x1="300" y1="393" x2="3500" y2="393" stroke="#e5e7eb"/>
<rect x="36" y="266" width="6" height="120" rx="3" fill="#0e7490"/>
<text x="52" y="331.0" font-size="14.5" font-weight="700" fill="#111827">harness 工程 · 脚手架进化</text>
<text x="52" y="348.0" font-size="11.5" fill="#6b7280">15 works</text>
<rect x="1652.7" y="269.0" width="47.1" height="24" rx="12" fill="#d8e8ed" stroke="#0e7490" stroke-width="1"/>
<text x="1676.2" y="285.5" font-size="13" text-anchor="middle" fill="#111827">ADAS</text>
<rect x="1704.0" y="299.0" width="54.4" height="24" rx="12" fill="#d8e8ed" stroke="#0e7490" stroke-width="1"/>
<text x="1731.2" y="315.5" font-size="13" text-anchor="middle" fill="#111827">AFlow</text>
<rect x="2058.1" y="269.0" width="47.1" height="24" rx="12" fill="#d8e8ed" stroke="#0e7490" stroke-width="1"/>
<text x="2081.7" y="285.5" font-size="13" text-anchor="middle" fill="#111827">GEPA</text>
<rect x="2191.7" y="269.0" width="39.8" height="24" rx="12" fill="#d8e8ed" stroke="#0e7490" stroke-width="1"/>
<text x="2211.7" y="285.5" font-size="13" text-anchor="middle" fill="#111827">ACE</text>
<rect x="2349.2" y="269.0" width="39.8" height="24" rx="12" fill="#d8e8ed" stroke="#0e7490" stroke-width="1"/>
<text x="2369.2" y="285.5" font-size="13" text-anchor="middle" fill="#111827">MCE</text>
<rect x="2513.2" y="269.0" width="105.4" height="24" rx="12" fill="#d8e8ed" stroke="#0e7490" stroke-width="1"/>
<text x="2565.8" y="285.5" font-size="13" text-anchor="middle" fill="#111827">Meta-Harness</text>
<rect x="2644.2" y="269.0" width="39.8" height="24" rx="12" fill="#d8e8ed" stroke="#0e7490" stroke-width="1"/>
<text x="2664.2" y="285.5" font-size="13" text-anchor="middle" fill="#111827">AHE</text>
<rect x="2717.1" y="269.0" width="90.8" height="24" rx="12" fill="#d8e8ed" stroke="#0e7490" stroke-width="1"/>
<text x="2762.5" y="285.5" font-size="13" text-anchor="middle" fill="#111827">DemoEvolve</text>
<rect x="2698.9" y="299.0" width="127.2" height="24" rx="12" fill="#d8e8ed" stroke="#0e7490" stroke-width="1"/>
<text x="2762.5" y="315.5" font-size="13" text-anchor="middle" fill="#111827">Harness≠Benefit</text>
<rect x="2742.6" y="329.0" width="39.8" height="24" rx="12" fill="#d8e8ed" stroke="#0e7490" stroke-width="1"/>
<text x="2762.5" y="345.5" font-size="13" text-anchor="middle" fill="#111827">SIA</text>
<rect x="2775.4" y="359.0" width="170.9" height="24" rx="12" fill="#d8e8ed" stroke="#0e7490" stroke-width="1"/>
<text x="2860.8" y="375.5" font-size="13" text-anchor="middle" fill="#111827">Adaptive Auto-Harness</text>
<rect x="2808.2" y="329.0" width="105.4" height="24" rx="12" fill="#d8e8ed" stroke="#0e7490" stroke-width="1"/>
<text x="2860.8" y="345.5" font-size="13" text-anchor="middle" fill="#111827">Self-Harness</text>
<rect x="3008.5" y="269.0" width="98.1" height="24" rx="12" fill="#d8e8ed" stroke="#0e7490" stroke-width="1"/>
<text x="3057.5" y="285.5" font-size="13" text-anchor="middle" fill="#111827">AutoSaddler</text>
<rect x="3037.6" y="299.0" width="39.8" height="24" rx="12" fill="#d8e8ed" stroke="#0e7490" stroke-width="1"/>
<text x="3057.5" y="315.5" font-size="13" text-anchor="middle" fill="#111827">HSI</text>
<rect x="3012.1" y="329.0" width="90.8" height="24" rx="12" fill="#d8e8ed" stroke="#0e7490" stroke-width="1"/>
<text x="3057.5" y="345.5" font-size="13" text-anchor="middle" fill="#111827">MetaCaster</text>
<line x1="300" y1="497" x2="3500" y2="497" stroke="#e5e7eb"/>
<rect x="36" y="400" width="6" height="90" rx="3" fill="#dc2626"/>
<text x="52" y="450.0" font-size="14.5" font-weight="700" fill="#111827">评估侧 · 评估器共进化</text>
<text x="52" y="467.0" font-size="11.5" fill="#6b7280">6 works</text>
<rect x="2728.0" y="403.0" width="69.0" height="24" rx="12" fill="#dc2626" stroke="#dc2626" stroke-width="1.6"/>
<text x="2762.5" y="419.5" font-size="13" text-anchor="middle" fill="#ffffff" font-weight="700">★ EvoLM</text>
<rect x="2840.9" y="403.0" width="39.8" height="24" rx="12" fill="#f9dcdc" stroke="#dc2626" stroke-width="1"/>
<text x="2860.8" y="419.5" font-size="13" text-anchor="middle" fill="#111827">RHO</text>
<rect x="2830.0" y="433.0" width="61.7" height="24" rx="12" fill="#dc2626" stroke="#dc2626" stroke-width="1.6"/>
<text x="2860.8" y="449.5" font-size="13" text-anchor="middle" fill="#ffffff" font-weight="700">★ RQGM</text>
<rect x="2833.6" y="463.0" width="54.4" height="24" rx="12" fill="#f9dcdc" stroke="#dc2626" stroke-width="1"/>
<text x="2860.8" y="479.5" font-size="13" text-anchor="middle" fill="#111827">SCORE</text>
<rect x="2928.3" y="403.0" width="61.7" height="24" rx="12" fill="#dc2626" stroke="#dc2626" stroke-width="1.6"/>
<text x="2959.2" y="419.5" font-size="13" text-anchor="middle" fill="#ffffff" font-weight="700">★ WGtG</text>
<rect x="3015.7" y="403.0" width="83.5" height="24" rx="12" fill="#f9dcdc" stroke="#dc2626" stroke-width="1"/>
<text x="3057.5" y="419.5" font-size="13" text-anchor="middle" fill="#111827">EvalCEGAR</text>
<line x1="300" y1="541" x2="3500" y2="541" stroke="#e5e7eb"/>
<rect x="36" y="504" width="6" height="30" rx="3" fill="#7c3aed"/>
<text x="52" y="524.0" font-size="14.5" font-weight="700" fill="#111827">权重侧 · 模型自训练</text>
<text x="52" y="541.0" font-size="11.5" fill="#6b7280">2 works</text>
<rect x="2338.3" y="507.0" width="61.7" height="24" rx="12" fill="#7c3aed" stroke="#7c3aed" stroke-width="1.6"/>
<text x="2369.2" y="523.5" font-size="13" text-anchor="middle" fill="#ffffff" font-weight="700">★ ECHO</text>
<rect x="2913.8" y="507.0" width="90.8" height="24" rx="12" fill="#eadffc" stroke="#7c3aed" stroke-width="1"/>
<text x="2959.2" y="523.5" font-size="13" text-anchor="middle" fill="#111827">Co-Harness</text>
<line x1="300" y1="735" x2="3500" y2="735" stroke="#e5e7eb"/>
<rect x="36" y="548" width="6" height="180" rx="3" fill="#059669"/>
<text x="52" y="643.0" font-size="14.5" font-weight="700" fill="#111827">知识侧 · 经验→技能</text>
<text x="52" y="660.0" font-size="11.5" fill="#6b7280">9 works</text>
<rect x="1266.8" y="551.0" width="69.0" height="24" rx="12" fill="#d7eee7" stroke="#059669" stroke-width="1"/>
<text x="1301.2" y="567.5" font-size="13" text-anchor="middle" fill="#111827">Voyager</text>
<rect x="2433.0" y="551.0" width="69.0" height="24" rx="12" fill="#d7eee7" stroke="#059669" stroke-width="1"/>
<text x="2467.5" y="567.5" font-size="13" text-anchor="middle" fill="#111827">SkillRL</text>
<rect x="2713.5" y="551.0" width="98.1" height="24" rx="12" fill="#d7eee7" stroke="#059669" stroke-width="1"/>
<text x="2762.5" y="567.5" font-size="13" text-anchor="middle" fill="#111827">Evolving-RL</text>
<rect x="3023.0" y="551.0" width="69.0" height="24" rx="12" fill="#d7eee7" stroke="#059669" stroke-width="1"/>
<text x="3057.5" y="567.5" font-size="13" text-anchor="middle" fill="#111827">ERSkill</text>
<rect x="3008.5" y="581.0" width="98.1" height="24" rx="12" fill="#d7eee7" stroke="#059669" stroke-width="1"/>
<text x="3057.5" y="597.5" font-size="13" text-anchor="middle" fill="#111827">Evo-Harness</text>
<rect x="3012.1" y="611.0" width="90.8" height="24" rx="12" fill="#d7eee7" stroke="#059669" stroke-width="1"/>
<text x="3057.5" y="627.5" font-size="13" text-anchor="middle" fill="#111827">HyperSkill</text>
<rect x="3008.5" y="641.0" width="98.1" height="24" rx="12" fill="#d7eee7" stroke="#059669" stroke-width="1"/>
<text x="3057.5" y="657.5" font-size="13" text-anchor="middle" fill="#111827">SkillCommit</text>
<rect x="3015.7" y="671.0" width="83.5" height="24" rx="12" fill="#d7eee7" stroke="#059669" stroke-width="1"/>
<text x="3057.5" y="687.5" font-size="13" text-anchor="middle" fill="#111827">SkillProx</text>
<rect x="3008.5" y="701.0" width="98.1" height="24" rx="12" fill="#059669" stroke="#059669" stroke-width="1.6"/>
<text x="3057.5" y="717.5" font-size="13" text-anchor="middle" fill="#ffffff" font-weight="700">★ WikiSkill</text>
<line x1="300" y1="809" x2="3500" y2="809" stroke="#e5e7eb"/>
<rect x="36" y="742" width="6" height="60" rx="3" fill="#db2777"/>
<text x="52" y="777.0" font-size="14.5" font-weight="700" fill="#111827">在线侧 · 免重置 / 环境侧</text>
<text x="52" y="794.0" font-size="11.5" fill="#6b7280">3 works</text>
<rect x="2684.3" y="745.0" width="156.3" height="24" rx="12" fill="#db2777" stroke="#db2777" stroke-width="1.6"/>
<text x="2762.5" y="761.5" font-size="13" text-anchor="middle" fill="#ffffff" font-weight="700">★ Continual Harness</text>
<rect x="3012.1" y="745.0" width="90.8" height="24" rx="12" fill="#f9dce9" stroke="#db2777" stroke-width="1"/>
<text x="3057.5" y="761.5" font-size="13" text-anchor="middle" fill="#111827">EnvHarness</text>
<rect x="3008.5" y="775.0" width="98.1" height="24" rx="12" fill="#f9dce9" stroke="#db2777" stroke-width="1"/>
<text x="3057.5" y="791.5" font-size="13" text-anchor="middle" fill="#111827">Prime Agent</text>
<line x1="300" y1="943" x2="3500" y2="943" stroke="#e5e7eb"/>
<rect x="36" y="816" width="6" height="120" rx="3" fill="#ea580c"/>
<text x="52" y="881.0" font-size="14.5" font-weight="700" fill="#111827">安全治理 · 部署纪律</text>
<text x="52" y="898.0" font-size="11.5" fill="#6b7280">7 works</text>
<rect x="2256.3" y="819.0" width="61.7" height="24" rx="12" fill="#fbe4d8" stroke="#ea580c" stroke-width="1"/>
<text x="2287.2" y="835.5" font-size="13" text-anchor="middle" fill="#111827">ASG-SI</text>
<rect x="2447.6" y="819.0" width="39.8" height="24" rx="12" fill="#fbe4d8" stroke="#ea580c" stroke-width="1"/>
<text x="2467.5" y="835.5" font-size="13" text-anchor="middle" fill="#111827">ARA</text>
<rect x="2815.4" y="819.0" width="90.8" height="24" rx="12" fill="#fbe4d8" stroke="#ea580c" stroke-width="1"/>
<text x="2860.8" y="835.5" font-size="13" text-anchor="middle" fill="#111827">HarnessFix</text>
<rect x="2888.3" y="849.0" width="141.8" height="24" rx="12" fill="#fbe4d8" stroke="#ea580c" stroke-width="1"/>
<text x="2959.2" y="865.5" font-size="13" text-anchor="middle" fill="#111827">Falsifiable Gates</text>
<rect x="3033.9" y="819.0" width="47.1" height="24" rx="12" fill="#fbe4d8" stroke="#ea580c" stroke-width="1"/>
<text x="3057.5" y="835.5" font-size="13" text-anchor="middle" fill="#111827">HVTB</text>
<rect x="3037.6" y="879.0" width="39.8" height="24" rx="12" fill="#fbe4d8" stroke="#ea580c" stroke-width="1"/>
<text x="3057.5" y="895.5" font-size="13" text-anchor="middle" fill="#111827">OLE</text>
<rect x="3033.9" y="909.0" width="47.1" height="24" rx="12" fill="#fbe4d8" stroke="#ea580c" stroke-width="1"/>
<text x="3057.5" y="925.5" font-size="13" text-anchor="middle" fill="#111827">SESG</text>
<line x1="300" y1="1017" x2="3500" y2="1017" stroke="#e5e7eb"/>
<rect x="36" y="950" width="6" height="60" rx="3" fill="#a16207"/>
<text x="52" y="985.0" font-size="14.5" font-weight="700" fill="#111827">综述 · 宏观与测量</text>
<text x="52" y="1002.0" font-size="11.5" fill="#6b7280">5 works</text>
<rect x="1327.7" y="953.0" width="127.2" height="24" rx="12" fill="#efe5d7" stroke="#a16207" stroke-width="1"/>
<text x="1391.2" y="969.5" font-size="13" text-anchor="middle" fill="#111827">Erdil&amp;Besiroglu</text>
<rect x="1861.6" y="953.0" width="93.4" height="24" rx="12" fill="#efe5d7" stroke="#a16207" stroke-width="1"/>
<text x="1908.3" y="969.5" font-size="13" text-anchor="middle" fill="#111827">METR 地平线</text>
<rect x="2041.5" y="953.0" width="80.4" height="24" rx="12" fill="#efe5d7" stroke="#a16207" stroke-width="1"/>
<text x="2081.7" y="969.5" font-size="13" text-anchor="middle" fill="#111827">TMLR 综述</text>
<rect x="2988.2" y="953.0" width="138.6" height="24" rx="12" fill="#efe5d7" stroke="#a16207" stroke-width="1"/>
<text x="3057.5" y="969.5" font-size="13" text-anchor="middle" fill="#111827">Co-Evolution 综述</text>
<rect x="3010.0" y="983.0" width="95.0" height="24" rx="12" fill="#efe5d7" stroke="#a16207" stroke-width="1"/>
<text x="3057.5" y="999.5" font-size="13" text-anchor="middle" fill="#111827">Coding 综述</text>
<line x1="300" y1="1091" x2="3500" y2="1091" stroke="#e5e7eb"/>
<rect x="36" y="1024" width="6" height="60" rx="3" fill="#475569"/>
<text x="52" y="1059.0" font-size="14.5" font-weight="700" fill="#111827">思想史 · 前史</text>
<text x="52" y="1076.0" font-size="11.5" fill="#6b7280">8 works</text>
<rect x="302.0" y="1027.0" width="76.2" height="24" rx="12" fill="#e1e3e7" stroke="#475569" stroke-width="1"/>
<text x="340.1" y="1043.5" font-size="13" text-anchor="middle" fill="#111827">Good '65</text>
<rect x="407.0" y="1027.0" width="83.5" height="24" rx="12" fill="#e1e3e7" stroke="#475569" stroke-width="1"/>
<text x="448.8" y="1043.5" font-size="13" text-anchor="middle" fill="#111827">Vinge '93</text>
<rect x="526.3" y="1027.0" width="54.4" height="24" rx="12" fill="#e1e3e7" stroke="#475569" stroke-width="1"/>
<text x="553.5" y="1043.5" font-size="13" text-anchor="middle" fill="#111827">GISAI</text>
<rect x="620.4" y="1027.0" width="112.6" height="24" rx="12" fill="#e1e3e7" stroke="#475569" stroke-width="1"/>
<text x="676.7" y="1043.5" font-size="13" text-anchor="middle" fill="#111827">Gödel Machine</text>
<rect x="737.0" y="1057.0" width="83.5" height="24" rx="12" fill="#e1e3e7" stroke="#475569" stroke-width="1"/>
<text x="778.8" y="1073.5" font-size="13" text-anchor="middle" fill="#111827">Omohundro</text>
<rect x="860.0" y="1027.0" width="76.2" height="24" rx="12" fill="#e1e3e7" stroke="#475569" stroke-width="1"/>
<text x="898.1" y="1043.5" font-size="13" text-anchor="middle" fill="#111827">Chalmers</text>
<rect x="1002.4" y="1027.0" width="39.8" height="24" rx="12" fill="#e1e3e7" stroke="#475569" stroke-width="1"/>
<text x="1022.3" y="1043.5" font-size="13" text-anchor="middle" fill="#111827">IEM</text>
<rect x="1056.2" y="1027.0" width="141.8" height="24" rx="12" fill="#e1e3e7" stroke="#475569" stroke-width="1"/>
<text x="1127.1" y="1043.5" font-size="13" text-anchor="middle" fill="#111827">Superintelligence</text>
</svg>