<svg xmlns="http://www.w3.org/2000/svg" width="1420" height="1856" viewBox="0 0 1420 1856" font-family="-apple-system,Helvetica,Arial,'PingFang SC','Noto Sans CJK SC',sans-serif">
<rect width="1420" height="1856" fill="#0b0f17"/>
<text x="36" y="42" font-size="24" font-weight="700" fill="#e6edf3">Figure 2 · 递归自改进的分类体系（Taxonomy）</text>
<text x="36" y="68" font-size="13.5" fill="#9aa4b2">7 个一级维度 · 37 个子类；"锚在哪"是本仓库独有的主轴——三份公开综述都没有这一列。同一工作可出现在多个维度（如 Continual Harness 既是文本层介质，又是免重置时间模式，锚为冻结 PRM）。</text>
<rect x="40" y="913.0" width="200" height="68" rx="10" fill="#e6edf3"/>
<text x="140.0" y="941.0" font-size="16" font-weight="700" text-anchor="middle" fill="#0b0f17">递归自改进</text>
<text x="140.0" y="963.0" font-size="12.5" text-anchor="middle" fill="#0b0f17">Recursive Self-Improvement</text>
<path d="M240,947.0 H280.0 V205.0 H320" fill="none" stroke="#243040" stroke-width="1.6"/>
<rect x="320" y="110.0" width="230" height="190.0" rx="9" fill="#99a1ac" stroke="#475569" stroke-width="1.6"/>
<text x="435.0" y="200.0" font-size="15" font-weight="700" text-anchor="middle" fill="#0b0f17">思想史与判据</text>
<text x="435.0" y="220.0" font-size="12.5" font-weight="400" text-anchor="middle" fill="#0b0f17">（1965-2014）</text>
<path d="M550,205.0 H585.0 V125.0 H620" fill="none" stroke="#475569" stroke-width="1.2" opacity="0.8"/>
<rect x="620" y="110" width="250" height="30" rx="6" fill="#0b0f17" stroke="#475569" stroke-width="1.2"/>
<text x="632" y="130.0" font-size="13.5" font-weight="600" fill="#e6edf3">正反馈猜想 · 智能爆炸</text>
<line x1="870" y1="125.0" x2="912" y2="125.0" stroke="#475569" stroke-width="1" opacity="0.6"/>
<text x="920" y="130.0" font-size="12.5" fill="#e6edf3">Good '65 · Vinge '93</text>
<path d="M550,205.0 H585.0 V165.0 H620" fill="none" stroke="#475569" stroke-width="1.2" opacity="0.8"/>
<rect x="620" y="150" width="250" height="30" rx="6" fill="#0b0f17" stroke="#475569" stroke-width="1.2"/>
<text x="632" y="170.0" font-size="13.5" font-weight="600" fill="#e6edf3">能力构造与持续条件</text>
<line x1="870" y1="165.0" x2="912" y2="165.0" stroke="#475569" stroke-width="1" opacity="0.6"/>
<text x="920" y="170.0" font-size="12.5" fill="#e6edf3">GISAI '01（三能力 · 每级须开新机会）</text>
<path d="M550,205.0 H585.0 V205.0 H620" fill="none" stroke="#475569" stroke-width="1.2" opacity="0.8"/>
<rect x="620" y="190" width="250" height="30" rx="6" fill="#0b0f17" stroke="#475569" stroke-width="1.2"/>
<text x="632" y="210.0" font-size="13.5" font-weight="600" fill="#e6edf3">自指完备的形式化极限</text>
<line x1="870" y1="205.0" x2="912" y2="205.0" stroke="#475569" stroke-width="1" opacity="0.6"/>
<text x="920" y="210.0" font-size="12.5" fill="#e6edf3">Gödel Machine '03</text>
<path d="M550,205.0 H585.0 V245.0 H620" fill="none" stroke="#475569" stroke-width="1.2" opacity="0.8"/>
<rect x="620" y="230" width="250" height="30" rx="6" fill="#0b0f17" stroke="#475569" stroke-width="1.2"/>
<text x="632" y="250.0" font-size="13.5" font-weight="600" fill="#e6edf3">动力学判据 crossover / recalcitrance</text>
<line x1="870" y1="245.0" x2="912" y2="245.0" stroke="#475569" stroke-width="1" opacity="0.6"/>
<text x="920" y="250.0" font-size="12.5" fill="#e6edf3">Superintelligence '14 · IEM '13 · Chalmers '10</text>
<path d="M550,205.0 H585.0 V285.0 H620" fill="none" stroke="#475569" stroke-width="1.2" opacity="0.8"/>
<rect x="620" y="270" width="250" height="30" rx="6" fill="#0b0f17" stroke="#475569" stroke-width="1.2"/>
<text x="632" y="290.0" font-size="13.5" font-weight="600" fill="#e6edf3">工具性驱力 · 安全起点</text>
<line x1="870" y1="285.0" x2="912" y2="285.0" stroke="#475569" stroke-width="1" opacity="0.6"/>
<text x="920" y="290.0" font-size="12.5" fill="#e6edf3">Omohundro '08</text>
<path d="M240,947.0 H280.0 V445.0 H320" fill="none" stroke="#243040" stroke-width="1.6"/>
<rect x="320" y="332.0" width="230" height="226.0" rx="9" fill="#eab476" stroke="#d97706" stroke-width="1.6"/>
<text x="435.0" y="440.0" font-size="15" font-weight="700" text-anchor="middle" fill="#0b0f17">改哪层</text>
<text x="435.0" y="460.0" font-size="12.5" font-weight="400" text-anchor="middle" fill="#0b0f17">（自我修改的介质）</text>
<path d="M550,445.0 H585.0 V347.0 H620" fill="none" stroke="#d97706" stroke-width="1.2" opacity="0.8"/>
<rect x="620" y="332" width="250" height="30" rx="6" fill="#0b0f17" stroke="#d97706" stroke-width="1.2"/>
<text x="632" y="352.0" font-size="13.5" font-weight="600" fill="#e6edf3">源码层 · 改自身 harness 代码</text>
<line x1="870" y1="347.0" x2="912" y2="347.0" stroke="#d97706" stroke-width="1" opacity="0.6"/>
<text x="920" y="352.0" font-size="12.5" fill="#e6edf3">DGM · MOSS · Gödel Agent · SICA · Meta-Harness · HyperAgents</text>
<path d="M550,445.0 H585.0 V396.0 H620" fill="none" stroke="#d97706" stroke-width="1.2" opacity="0.8"/>
<rect x="620" y="372" width="250" height="48" rx="6" fill="#0b0f17" stroke="#d97706" stroke-width="1.2"/>
<text x="632" y="401.0" font-size="13.5" font-weight="600" fill="#e6edf3">文本层 · 提示 / 技能 / 记忆</text>
<line x1="870" y1="396.0" x2="912" y2="396.0" stroke="#d97706" stroke-width="1" opacity="0.6"/>
<text x="920" y="392.0" font-size="12.5" fill="#e6edf3">GEPA · ACE · MCE · Continual Harness · AutoSaddler</text>
<text x="920" y="410.0" font-size="12.5" fill="#e6edf3">Self-Harness · RHO</text>
<path d="M550,445.0 H585.0 V454.0 H620" fill="none" stroke="#d97706" stroke-width="1.2" opacity="0.8"/>
<rect x="620" y="430" width="250" height="48" rx="6" fill="#0b0f17" stroke="#d97706" stroke-width="1.2"/>
<text x="632" y="459.0" font-size="13.5" font-weight="600" fill="#e6edf3">权重层 · 微调 / RL</text>
<line x1="870" y1="454.0" x2="912" y2="454.0" stroke="#d97706" stroke-width="1" opacity="0.6"/>
<text x="920" y="450.0" font-size="12.5" fill="#e6edf3">EvoLM · ECHO · Co-Harness · iCoder · SESG · SkillRL</text>
<text x="920" y="468.0" font-size="12.5" fill="#e6edf3">Evolving-RL</text>
<path d="M550,445.0 H585.0 V503.0 H620" fill="none" stroke="#d97706" stroke-width="1.2" opacity="0.8"/>
<rect x="620" y="488" width="250" height="30" rx="6" fill="#0b0f17" stroke="#d97706" stroke-width="1.2"/>
<text x="632" y="508.0" font-size="13.5" font-weight="600" fill="#e6edf3">环境层 · 进化任务而非 agent</text>
<line x1="870" y1="503.0" x2="912" y2="503.0" stroke="#d97706" stroke-width="1" opacity="0.6"/>
<text x="920" y="508.0" font-size="12.5" fill="#e6edf3">EnvHarness</text>
<path d="M550,445.0 H585.0 V543.0 H620" fill="none" stroke="#d97706" stroke-width="1.2" opacity="0.8"/>
<rect x="620" y="528" width="250" height="30" rx="6" fill="#0b0f17" stroke="#d97706" stroke-width="1.2"/>
<text x="632" y="548.0" font-size="13.5" font-weight="600" fill="#e6edf3">改输入不改机器 · 递归 Ω</text>
<line x1="870" y1="543.0" x2="912" y2="543.0" stroke="#d97706" stroke-width="1" opacity="0.6"/>
<text x="920" y="548.0" font-size="12.5" fill="#e6edf3">Metan</text>
<path d="M240,947.0 H280.0 V734.0 H320" fill="none" stroke="#243040" stroke-width="1.6"/>
<rect x="320" y="590.0" width="230" height="288.0" rx="9" fill="#eb8787" stroke="#dc2626" stroke-width="1.6"/>
<text x="435.0" y="729.0" font-size="15" font-weight="700" text-anchor="middle" fill="#0b0f17">锚在哪</text>
<text x="435.0" y="749.0" font-size="12.5" font-weight="400" text-anchor="middle" fill="#0b0f17">（不参与进化的部件）</text>
<path d="M550,734.0 H585.0 V614.0 H620" fill="none" stroke="#dc2626" stroke-width="1.2" opacity="0.8"/>
<rect x="620" y="590" width="250" height="48" rx="6" fill="#0b0f17" stroke="#dc2626" stroke-width="1.2"/>
<text x="632" y="619.0" font-size="13.5" font-weight="600" fill="#e6edf3">人工锚定集 · 人类标注</text>
<line x1="870" y1="614.0" x2="912" y2="614.0" stroke="#dc2626" stroke-width="1" opacity="0.6"/>
<text x="920" y="610.0" font-size="12.5" fill="#e6edf3">Who Grades the Grader</text>
<text x="920" y="628.0" font-size="12.5" fill="#e6edf3">RQGM（CRAVE / APReS / IMO-GradingBench）</text>
<path d="M550,734.0 H585.0 V663.0 H620" fill="none" stroke="#dc2626" stroke-width="1.2" opacity="0.8"/>
<rect x="620" y="648" width="250" height="30" rx="6" fill="#0b0f17" stroke="#dc2626" stroke-width="1.2"/>
<text x="632" y="668.0" font-size="13.5" font-weight="600" fill="#e6edf3">冻结评估器 / PRM / 教师</text>
<line x1="870" y1="663.0" x2="912" y2="663.0" stroke="#dc2626" stroke-width="1" opacity="0.6"/>
<text x="920" y="668.0" font-size="12.5" fill="#e6edf3">Continual Harness · RQGM（epoch 内冻结） · ECHO（环境奖励）</text>
<path d="M550,734.0 H585.0 V703.0 H620" fill="none" stroke="#dc2626" stroke-width="1.2" opacity="0.8"/>
<rect x="620" y="688" width="250" height="30" rx="6" fill="#0b0f17" stroke="#dc2626" stroke-width="1.2"/>
<text x="632" y="708.0" font-size="13.5" font-weight="600" fill="#e6edf3">回归门 / 泛化门</text>
<line x1="870" y1="703.0" x2="912" y2="703.0" stroke="#dc2626" stroke-width="1" opacity="0.6"/>
<text x="920" y="708.0" font-size="12.5" fill="#e6edf3">Self-Harness · AutoSaddler · SkillProx · Co-Harness</text>
<path d="M550,734.0 H585.0 V743.0 H620" fill="none" stroke="#dc2626" stroke-width="1.2" opacity="0.8"/>
<rect x="620" y="728" width="250" height="30" rx="6" fill="#0b0f17" stroke="#dc2626" stroke-width="1.2"/>
<text x="632" y="748.0" font-size="13.5" font-weight="600" fill="#e6edf3">冻结外层 proposer / Ω</text>
<line x1="870" y1="743.0" x2="912" y2="743.0" stroke="#dc2626" stroke-width="1" opacity="0.6"/>
<text x="920" y="748.0" font-size="12.5" fill="#e6edf3">Meta-Harness · Metan</text>
<path d="M550,734.0 H585.0 V783.0 H620" fill="none" stroke="#dc2626" stroke-width="1.2" opacity="0.8"/>
<rect x="620" y="768" width="250" height="30" rx="6" fill="#0b0f17" stroke="#dc2626" stroke-width="1.2"/>
<text x="632" y="788.0" font-size="13.5" font-weight="600" fill="#e6edf3">原始验证器锁死</text>
<line x1="870" y1="783.0" x2="912" y2="783.0" stroke="#dc2626" stroke-width="1" opacity="0.6"/>
<text x="920" y="788.0" font-size="12.5" fill="#e6edf3">EnvHarness · iCoder · MetaCaster</text>
<path d="M550,734.0 H585.0 V823.0 H620" fill="none" stroke="#dc2626" stroke-width="1.2" opacity="0.8"/>
<rect x="620" y="808" width="250" height="30" rx="6" fill="#0b0f17" stroke="#dc2626" stroke-width="1.2"/>
<text x="632" y="828.0" font-size="13.5" font-weight="600" fill="#e6edf3">锚驱动进化 · 碰撞对</text>
<line x1="870" y1="823.0" x2="912" y2="823.0" stroke="#dc2626" stroke-width="1" opacity="0.6"/>
<text x="920" y="828.0" font-size="12.5" fill="#e6edf3">EvalCEGAR</text>
<path d="M550,734.0 H585.0 V863.0 H620" fill="none" stroke="#dc2626" stroke-width="1.2" opacity="0.8"/>
<rect x="620" y="848" width="250" height="30" rx="6" fill="#0b0f17" stroke="#dc2626" stroke-width="1.2"/>
<text x="632" y="868.0" font-size="13.5" font-weight="600" fill="#e6edf3">无锚 · 自偏好（单轮）</text>
<line x1="870" y1="863.0" x2="912" y2="863.0" stroke="#dc2626" stroke-width="1" opacity="0.6"/>
<text x="920" y="868.0" font-size="12.5" fill="#e6edf3">RHO</text>
<path d="M240,947.0 H280.0 V985.0 H320" fill="none" stroke="#243040" stroke-width="1.6"/>
<rect x="320" y="910.0" width="230" height="150.0" rx="9" fill="#eb88b4" stroke="#db2777" stroke-width="1.6"/>
<text x="435.0" y="980.0" font-size="15" font-weight="700" text-anchor="middle" fill="#0b0f17">时间模式</text>
<text x="435.0" y="1000.0" font-size="12.5" font-weight="400" text-anchor="middle" fill="#0b0f17">（何时改）</text>
<path d="M550,985.0 H585.0 V925.0 H620" fill="none" stroke="#db2777" stroke-width="1.2" opacity="0.8"/>
<rect x="620" y="910" width="250" height="30" rx="6" fill="#0b0f17" stroke="#db2777" stroke-width="1.2"/>
<text x="632" y="930.0" font-size="13.5" font-weight="600" fill="#e6edf3">重置式 · 完整评测后选择</text>
<line x1="870" y1="925.0" x2="912" y2="925.0" stroke="#db2777" stroke-width="1" opacity="0.6"/>
<text x="920" y="930.0" font-size="12.5" fill="#e6edf3">DGM · RQGM · GEPA · Meta-Harness</text>
<path d="M550,985.0 H585.0 V965.0 H620" fill="none" stroke="#db2777" stroke-width="1.2" opacity="0.8"/>
<rect x="620" y="950" width="250" height="30" rx="6" fill="#0b0f17" stroke="#db2777" stroke-width="1.2"/>
<text x="632" y="970.0" font-size="13.5" font-weight="600" fill="#e6edf3">免重置 · 故障现场精炼</text>
<line x1="870" y1="965.0" x2="912" y2="965.0" stroke="#db2777" stroke-width="1" opacity="0.6"/>
<text x="920" y="970.0" font-size="12.5" fill="#e6edf3">Continual Harness · Prime Agent</text>
<path d="M550,985.0 H585.0 V1005.0 H620" fill="none" stroke="#db2777" stroke-width="1.2" opacity="0.8"/>
<rect x="620" y="990" width="250" height="30" rx="6" fill="#0b0f17" stroke="#db2777" stroke-width="1.2"/>
<text x="632" y="1010.0" font-size="13.5" font-weight="600" fill="#e6edf3">离线批次 · 双环交替</text>
<line x1="870" y1="1005.0" x2="912" y2="1005.0" stroke="#db2777" stroke-width="1" opacity="0.6"/>
<text x="920" y="1010.0" font-size="12.5" fill="#e6edf3">Co-Harness · AutoSaddler</text>
<path d="M550,985.0 H585.0 V1045.0 H620" fill="none" stroke="#db2777" stroke-width="1.2" opacity="0.8"/>
<rect x="620" y="1030" width="250" height="30" rx="6" fill="#0b0f17" stroke="#db2777" stroke-width="1.2"/>
<text x="632" y="1050.0" font-size="13.5" font-weight="600" fill="#e6edf3">任务时 / 任务后 / 阶段式</text>
<line x1="870" y1="1045.0" x2="912" y2="1045.0" stroke="#db2777" stroke-width="1" opacity="0.6"/>
<text x="920" y="1050.0" font-size="12.5" fill="#e6edf3">Self-Evolving Coding Agents 综述</text>
<path d="M240,947.0 H280.0 V1227.0 H320" fill="none" stroke="#243040" stroke-width="1.6"/>
<rect x="320" y="1092.0" width="230" height="270.0" rx="9" fill="#75c5ac" stroke="#059669" stroke-width="1.6"/>
<text x="435.0" y="1222.0" font-size="15" font-weight="700" text-anchor="middle" fill="#0b0f17">知识侧</text>
<text x="435.0" y="1242.0" font-size="12.5" font-weight="400" text-anchor="middle" fill="#0b0f17">（经验如何复利）</text>
<path d="M550,1227.0 H585.0 V1107.0 H620" fill="none" stroke="#059669" stroke-width="1.2" opacity="0.8"/>
<rect x="620" y="1092" width="250" height="30" rx="6" fill="#0b0f17" stroke="#059669" stroke-width="1.2"/>
<text x="632" y="1112.0" font-size="13.5" font-weight="600" fill="#e6edf3">经验 → wiki → 技能</text>
<line x1="870" y1="1107.0" x2="912" y2="1107.0" stroke="#059669" stroke-width="1" opacity="0.6"/>
<text x="920" y="1112.0" font-size="12.5" fill="#e6edf3">WikiSkill</text>
<path d="M550,1227.0 H585.0 V1147.0 H620" fill="none" stroke="#059669" stroke-width="1.2" opacity="0.8"/>
<rect x="620" y="1132" width="250" height="30" rx="6" fill="#0b0f17" stroke="#059669" stroke-width="1.2"/>
<text x="632" y="1152.0" font-size="13.5" font-weight="600" fill="#e6edf3">行为验证的层级抽象</text>
<line x1="870" y1="1147.0" x2="912" y2="1147.0" stroke="#059669" stroke-width="1" opacity="0.6"/>
<text x="920" y="1152.0" font-size="12.5" fill="#e6edf3">SkillCommit</text>
<path d="M550,1227.0 H585.0 V1187.0 H620" fill="none" stroke="#059669" stroke-width="1.2" opacity="0.8"/>
<rect x="620" y="1172" width="250" height="30" rx="6" fill="#0b0f17" stroke="#059669" stroke-width="1.2"/>
<text x="632" y="1192.0" font-size="13.5" font-weight="600" fill="#e6edf3">超图 · 组合关系保留</text>
<line x1="870" y1="1187.0" x2="912" y2="1187.0" stroke="#059669" stroke-width="1" opacity="0.6"/>
<text x="920" y="1192.0" font-size="12.5" fill="#e6edf3">HyperSkill</text>
<path d="M550,1227.0 H585.0 V1227.0 H620" fill="none" stroke="#059669" stroke-width="1.2" opacity="0.8"/>
<rect x="620" y="1212" width="250" height="30" rx="6" fill="#0b0f17" stroke="#059669" stroke-width="1.2"/>
<text x="632" y="1232.0" font-size="13.5" font-weight="600" fill="#e6edf3">检索行为技能化 · 双 frontier</text>
<line x1="870" y1="1227.0" x2="912" y2="1227.0" stroke="#059669" stroke-width="1" opacity="0.6"/>
<text x="920" y="1232.0" font-size="12.5" fill="#e6edf3">ERSkill</text>
<path d="M550,1227.0 H585.0 V1267.0 H620" fill="none" stroke="#059669" stroke-width="1.2" opacity="0.8"/>
<rect x="620" y="1252" width="250" height="30" rx="6" fill="#0b0f17" stroke="#059669" stroke-width="1.2"/>
<text x="632" y="1272.0" font-size="13.5" font-weight="600" fill="#e6edf3">近端文本梯度 · 删除一等公民</text>
<line x1="870" y1="1267.0" x2="912" y2="1267.0" stroke="#059669" stroke-width="1" opacity="0.6"/>
<text x="920" y="1272.0" font-size="12.5" fill="#e6edf3">SkillProx</text>
<path d="M550,1227.0 H585.0 V1307.0 H620" fill="none" stroke="#059669" stroke-width="1.2" opacity="0.8"/>
<rect x="620" y="1292" width="250" height="30" rx="6" fill="#0b0f17" stroke="#059669" stroke-width="1.2"/>
<text x="632" y="1312.0" font-size="13.5" font-weight="600" fill="#e6edf3">单次执行编译为 harness</text>
<line x1="870" y1="1307.0" x2="912" y2="1307.0" stroke="#059669" stroke-width="1" opacity="0.6"/>
<text x="920" y="1312.0" font-size="12.5" fill="#e6edf3">Evo-Harness</text>
<path d="M550,1227.0 H585.0 V1347.0 H620" fill="none" stroke="#059669" stroke-width="1.2" opacity="0.8"/>
<rect x="620" y="1332" width="250" height="30" rx="6" fill="#0b0f17" stroke="#059669" stroke-width="1.2"/>
<text x="632" y="1352.0" font-size="13.5" font-weight="600" fill="#e6edf3">技能库随 RL 共进化</text>
<line x1="870" y1="1347.0" x2="912" y2="1347.0" stroke="#059669" stroke-width="1" opacity="0.6"/>
<text x="920" y="1352.0" font-size="12.5" fill="#e6edf3">SkillRL · Evolving-RL · Voyager</text>
<path d="M240,947.0 H280.0 V1489.0 H320" fill="none" stroke="#243040" stroke-width="1.6"/>
<rect x="320" y="1394.0" width="230" height="190.0" rx="9" fill="#f3a379" stroke="#ea580c" stroke-width="1.6"/>
<text x="435.0" y="1484.0" font-size="15" font-weight="700" text-anchor="middle" fill="#0b0f17">安全治理</text>
<text x="435.0" y="1504.0" font-size="12.5" font-weight="400" text-anchor="middle" fill="#0b0f17">（部署纪律）</text>
<path d="M550,1489.0 H585.0 V1409.0 H620" fill="none" stroke="#ea580c" stroke-width="1.2" opacity="0.8"/>
<rect x="620" y="1394" width="250" height="30" rx="6" fill="#0b0f17" stroke="#ea580c" stroke-width="1.2"/>
<text x="632" y="1414.0" font-size="13.5" font-weight="600" fill="#e6edf3">批准 / 回滚门控 · 资产版本化</text>
<line x1="870" y1="1409.0" x2="912" y2="1409.0" stroke="#ea580c" stroke-width="1" opacity="0.6"/>
<text x="920" y="1414.0" font-size="12.5" fill="#e6edf3">MOSS · OpenLoopEvolve</text>
<path d="M550,1489.0 H585.0 V1449.0 H620" fill="none" stroke="#ea580c" stroke-width="1.2" opacity="0.8"/>
<rect x="620" y="1434" width="250" height="30" rx="6" fill="#0b0f17" stroke="#ea580c" stroke-width="1.2"/>
<text x="632" y="1454.0" font-size="13.5" font-weight="600" fill="#e6edf3">可证伪发布门 · 常驻不变量</text>
<line x1="870" y1="1449.0" x2="912" y2="1449.0" stroke="#ea580c" stroke-width="1" opacity="0.6"/>
<text x="920" y="1454.0" font-size="12.5" fill="#e6edf3">Falsifiable Release Gates</text>
<path d="M550,1489.0 H585.0 V1489.0 H620" fill="none" stroke="#ea580c" stroke-width="1.2" opacity="0.8"/>
<rect x="620" y="1474" width="250" height="30" rx="6" fill="#0b0f17" stroke="#ea580c" stroke-width="1.2"/>
<text x="632" y="1494.0" font-size="13.5" font-weight="600" fill="#e6edf3">失败归因 · 轨迹 IR</text>
<line x1="870" y1="1489.0" x2="912" y2="1489.0" stroke="#ea580c" stroke-width="1" opacity="0.6"/>
<text x="920" y="1494.0" font-size="12.5" fill="#e6edf3">HarnessFix · Co-Harness（HarnessCritic）</text>
<path d="M550,1489.0 H585.0 V1529.0 H620" fill="none" stroke="#ea580c" stroke-width="1.2" opacity="0.8"/>
<rect x="620" y="1514" width="250" height="30" rx="6" fill="#0b0f17" stroke="#ea580c" stroke-width="1.2"/>
<text x="632" y="1534.0" font-size="13.5" font-weight="600" fill="#e6edf3">reward hacking 测量</text>
<line x1="870" y1="1529.0" x2="912" y2="1529.0" stroke="#ea580c" stroke-width="1" opacity="0.6"/>
<text x="920" y="1534.0" font-size="12.5" fill="#e6edf3">HVTB · ARA · ASG-SI</text>
<path d="M550,1489.0 H585.0 V1569.0 H620" fill="none" stroke="#ea580c" stroke-width="1.2" opacity="0.8"/>
<rect x="620" y="1554" width="250" height="30" rx="6" fill="#0b0f17" stroke="#ea580c" stroke-width="1.2"/>
<text x="632" y="1574.0" font-size="13.5" font-weight="600" fill="#e6edf3">生产自进化护栏</text>
<line x1="870" y1="1569.0" x2="912" y2="1569.0" stroke="#ea580c" stroke-width="1" opacity="0.6"/>
<text x="920" y="1574.0" font-size="12.5" fill="#e6edf3">SESG（深信服 14/15）</text>
<path d="M240,947.0 H280.0 V1700.0 H320" fill="none" stroke="#243040" stroke-width="1.6"/>
<rect x="320" y="1616.0" width="230" height="168.0" rx="9" fill="#cba876" stroke="#a16207" stroke-width="1.6"/>
<text x="435.0" y="1695.0" font-size="15" font-weight="700" text-anchor="middle" fill="#0b0f17">测量与宏观</text>
<text x="435.0" y="1715.0" font-size="12.5" font-weight="400" text-anchor="middle" fill="#0b0f17">（外部视角）</text>
<path d="M550,1700.0 H585.0 V1631.0 H620" fill="none" stroke="#a16207" stroke-width="1.2" opacity="0.8"/>
<rect x="620" y="1616" width="250" height="30" rx="6" fill="#0b0f17" stroke="#a16207" stroke-width="1.2"/>
<text x="632" y="1636.0" font-size="13.5" font-weight="600" fill="#e6edf3">三份综述</text>
<line x1="870" y1="1631.0" x2="912" y2="1631.0" stroke="#a16207" stroke-width="1" opacity="0.6"/>
<text x="920" y="1636.0" font-size="12.5" fill="#e6edf3">TMLR 四维 · Co-Evolution 三阶段 · Coding Agents 三维</text>
<path d="M550,1700.0 H585.0 V1671.0 H620" fill="none" stroke="#a16207" stroke-width="1.2" opacity="0.8"/>
<rect x="620" y="1656" width="250" height="30" rx="6" fill="#0b0f17" stroke="#a16207" stroke-width="1.2"/>
<text x="632" y="1676.0" font-size="13.5" font-weight="600" fill="#e6edf3">工业证据</text>
<line x1="870" y1="1671.0" x2="912" y2="1671.0" stroke="#a16207" stroke-width="1" opacity="0.6"/>
<text x="920" y="1676.0" font-size="12.5" fill="#e6edf3">Anthropic 进度报告 · iCoder · Weng 总纲</text>
<path d="M550,1700.0 H585.0 V1711.0 H620" fill="none" stroke="#a16207" stroke-width="1.2" opacity="0.8"/>
<rect x="620" y="1696" width="250" height="30" rx="6" fill="#0b0f17" stroke="#a16207" stroke-width="1.2"/>
<text x="632" y="1716.0" font-size="13.5" font-weight="600" fill="#e6edf3">宏观节奏 · σ 之争</text>
<line x1="870" y1="1711.0" x2="912" y2="1711.0" stroke="#a16207" stroke-width="1" opacity="0.6"/>
<text x="920" y="1716.0" font-size="12.5" fill="#e6edf3">METR 地平线 · Erdil &amp; Besiroglu · Forethought</text>
<path d="M550,1700.0 H585.0 V1760.0 H620" fill="none" stroke="#a16207" stroke-width="1.2" opacity="0.8"/>
<rect x="620" y="1736" width="250" height="48" rx="6" fill="#0b0f17" stroke="#a16207" stroke-width="1.2"/>
<text x="632" y="1765.0" font-size="13.5" font-weight="600" fill="#e6edf3">自动研究谱系</text>
<line x1="870" y1="1760.0" x2="912" y2="1760.0" stroke="#a16207" stroke-width="1" opacity="0.6"/>
<text x="920" y="1756.0" font-size="12.5" fill="#e6edf3">AI Scientist · AlphaEvolve · ShinkaEvolve · ScientistOne</text>
<text x="920" y="1774.0" font-size="12.5" fill="#e6edf3">Why LLMs≠Scientists</text>
</svg>